<svg width="54" height="44" viewBox="0 0 54 44" fill="none" xmlns="http://www.w3.org/2000/svg">
<path d="M4.84275 6.7785C8.58408 2.7225 14.2454 0.666504 21.6667 0.666504H24.3334V8.18384L22.1894 8.61317C18.5361 9.34384 15.9948 10.7812 14.6348 12.8905C13.9251 14.0268 13.5227 15.328 13.4668 16.6665H21.6667C22.374 16.6665 23.0523 16.9475 23.5524 17.4476C24.0525 17.9476 24.3334 18.6259 24.3334 19.3332V37.9998C24.3334 40.9412 21.9414 43.3332 19.0001 43.3332H3.00008C2.29284 43.3332 1.61456 43.0522 1.11447 42.5521C0.614369 42.052 0.333418 41.3737 0.333418 40.6665V27.3332L0.341418 19.5492C0.317418 19.2532 -0.189249 12.2398 4.84275 6.7785ZM48.3334 43.3332H32.3334C31.6262 43.3332 30.9479 43.0522 30.4478 42.5521C29.9477 42.052 29.6667 41.3737 29.6667 40.6665V27.3332L29.6747 19.5492C29.6507 19.2532 29.1441 12.2398 34.1761 6.7785C37.9174 2.7225 43.5788 0.666504 51.0001 0.666504H53.6667V8.18384L51.5227 8.61317C47.8694 9.34384 45.3281 10.7812 43.9681 12.8905C43.2585 14.0268 42.856 15.328 42.8001 16.6665H51.0001C51.7073 16.6665 52.3856 16.9475 52.8857 17.4476C53.3858 17.9476 53.6667 18.6259 53.6667 19.3332V37.9998C53.6667 40.9412 51.2748 43.3332 48.3334 43.3332Z" fill="#902A8B"/>
</svg>
