<svg width="14" height="14" viewBox="0 0 14 14" fill="none" xmlns="http://www.w3.org/2000/svg">
<path d="M1.1306 1.1306C1.21188 1.04911 1.30844 0.984463 1.41474 0.940352C1.52104 0.89624 1.63501 0.873535 1.7501 0.873535C1.86519 0.873535 1.97915 0.89624 2.08546 0.940352C2.19176 0.984463 2.28832 1.04911 2.3696 1.1306L7.0001 5.76285L11.6306 1.1306C11.712 1.04924 11.8085 0.984711 11.9148 0.940683C12.0211 0.896654 12.135 0.873993 12.2501 0.873993C12.3652 0.873993 12.4791 0.896654 12.5854 0.940683C12.6917 0.984711 12.7882 1.04924 12.8696 1.1306C12.951 1.21195 13.0155 1.30853 13.0595 1.41483C13.1035 1.52112 13.1262 1.63505 13.1262 1.7501C13.1262 1.86515 13.1035 1.97908 13.0595 2.08537C13.0155 2.19166 12.951 2.28825 12.8696 2.3696L8.23735 7.0001L12.8696 11.6306C12.951 11.712 13.0155 11.8085 13.0595 11.9148C13.1035 12.0211 13.1262 12.135 13.1262 12.2501C13.1262 12.3652 13.1035 12.4791 13.0595 12.5854C13.0155 12.6917 12.951 12.7882 12.8696 12.8696C12.7882 12.951 12.6917 13.0155 12.5854 13.0595C12.4791 13.1035 12.3652 13.1262 12.2501 13.1262C12.135 13.1262 12.0211 13.1035 11.9148 13.0595C11.8085 13.0155 11.712 12.951 11.6306 12.8696L7.0001 8.23735L2.3696 12.8696C2.28825 12.951 2.19166 13.0155 2.08537 13.0595C1.97908 13.1035 1.86515 13.1262 1.7501 13.1262C1.63505 13.1262 1.52112 13.1035 1.41483 13.0595C1.30853 13.0155 1.21195 12.951 1.1306 12.8696C1.04924 12.7882 0.984711 12.6917 0.940683 12.5854C0.896654 12.4791 0.873993 12.3652 0.873993 12.2501C0.873993 12.135 0.896654 12.0211 0.940683 11.9148C0.984711 11.8085 1.04924 11.712 1.1306 11.6306L5.76285 7.0001L1.1306 2.3696C1.04911 2.28832 0.984463 2.19176 0.940352 2.08546C0.89624 1.97915 0.873535 1.86519 0.873535 1.7501C0.873535 1.63501 0.89624 1.52104 0.940352 1.41474C0.984463 1.30844 1.04911 1.21188 1.1306 1.1306Z" fill="white"/>
</svg>
