<svg width="14" height="14" viewBox="0 0 14 14" fill="none" xmlns="http://www.w3.org/2000/svg">
<path d="M1.13051 1.1306C1.21179 1.04911 1.30834 0.984463 1.41465 0.940352C1.52095 0.89624 1.63491 0.873535 1.75001 0.873535C1.8651 0.873535 1.97906 0.89624 2.08537 0.940352C2.19167 0.984463 2.28823 1.04911 2.36951 1.1306L7.00001 5.76285L11.6305 1.1306C11.7119 1.04924 11.8084 0.984711 11.9147 0.940683C12.021 0.896654 12.135 0.873993 12.25 0.873993C12.3651 0.873993 12.479 0.896654 12.5853 0.940683C12.6916 0.984711 12.7882 1.04924 12.8695 1.1306C12.9509 1.21195 13.0154 1.30853 13.0594 1.41483C13.1035 1.52112 13.1261 1.63505 13.1261 1.7501C13.1261 1.86515 13.1035 1.97908 13.0594 2.08537C13.0154 2.19166 12.9509 2.28825 12.8695 2.3696L8.23726 7.0001L12.8695 11.6306C12.9509 11.712 13.0154 11.8085 13.0594 11.9148C13.1035 12.0211 13.1261 12.135 13.1261 12.2501C13.1261 12.3652 13.1035 12.4791 13.0594 12.5854C13.0154 12.6917 12.9509 12.7882 12.8695 12.8696C12.7882 12.951 12.6916 13.0155 12.5853 13.0595C12.479 13.1035 12.3651 13.1262 12.25 13.1262C12.135 13.1262 12.021 13.1035 11.9147 13.0595C11.8084 13.0155 11.7119 12.951 11.6305 12.8696L7.00001 8.23735L2.36951 12.8696C2.28815 12.951 2.19157 13.0155 2.08528 13.0595C1.97898 13.1035 1.86506 13.1262 1.75001 13.1262C1.63496 13.1262 1.52103 13.1035 1.41474 13.0595C1.30844 13.0155 1.21186 12.951 1.13051 12.8696C1.04915 12.7882 0.98462 12.6917 0.940591 12.5854C0.896563 12.4791 0.873902 12.3652 0.873902 12.2501C0.873902 12.135 0.896563 12.0211 0.940591 11.9148C0.98462 11.8085 1.04915 11.712 1.13051 11.6306L5.76276 7.0001L1.13051 2.3696C1.04902 2.28832 0.984371 2.19176 0.94026 2.08546C0.896149 1.97915 0.873444 1.86519 0.873444 1.7501C0.873444 1.63501 0.896149 1.52104 0.94026 1.41474C0.984371 1.30844 1.04902 1.21188 1.13051 1.1306Z" fill="#902A8B"/>
</svg>
