<svg xmlns="http://www.w3.org/2000/svg" viewBox="0 0 106 131.25"><g id="Layer_2" data-name="Layer 2"><g id="Layer_2-2" data-name="Layer 2"><path d="M92.89,131.25H13.11A13.12,13.12,0,0,1,0,118.14V25.36A13.12,13.12,0,0,1,13.11,12.25H26.48a.5.5,0,1,1,0,1H13.11A12.12,12.12,0,0,0,1,25.36v92.78a12.12,12.12,0,0,0,12.11,12.11H92.89A12.12,12.12,0,0,0,105,118.14V25.36A12.12,12.12,0,0,0,92.89,13.25H79.25a.5.5,0,0,1,0-1H92.89A13.12,13.12,0,0,1,106,25.36v92.78A13.12,13.12,0,0,1,92.89,131.25Z"/><path d="M66.39,25H39.61a13.12,13.12,0,0,1-13-11.89H26.5V11.89h.06A13.12,13.12,0,0,1,39.61,0H66.39a13.12,13.12,0,0,1,13,11.89h.06v1.22h-.06A13.12,13.12,0,0,1,66.39,25ZM27.52,12.5A12.11,12.11,0,0,0,39.61,24H66.39a12.13,12.13,0,0,0,12.1-11.5A12.13,12.13,0,0,0,66.39,1H39.61A12.11,12.11,0,0,0,27.52,12.5Z"/><path d="M53,11.75A4.25,4.25,0,1,1,57.25,7.5,4.26,4.26,0,0,1,53,11.75Zm0-7.5A3.25,3.25,0,1,0,56.25,7.5,3.26,3.26,0,0,0,53,4.25Z"/><circle cx="36.75" cy="61" r="4.25"/><circle cx="69.25" cy="61" r="4.25"/><path d="M64.25,82.48a.5.5,0,0,1-.33-.12c-3.82-3.44-7.77-5.07-11.76-4.85a16,16,0,0,0-10,4.81.5.5,0,0,1-.7,0,.5.5,0,0,1,0-.71,16.76,16.76,0,0,1,10.71-5.14c4.26-.24,8.46,1.48,12.49,5.1a.5.5,0,0,1,0,.71A.49.49,0,0,1,64.25,82.48Z"/></g></g></svg>